<?xml version="1.0" encoding="UTF-8" standalone="no"?>
<!-- Created with Inkscape (http://www.inkscape.org/) -->

<svg
   xmlns:dc="http://purl.org/dc/elements/1.1/"
   xmlns:cc="http://creativecommons.org/ns#"
   xmlns:rdf="http://www.w3.org/1999/02/22-rdf-syntax-ns#"
   xmlns:svg="http://www.w3.org/2000/svg"
   xmlns="http://www.w3.org/2000/svg"
   xmlns:sodipodi="http://sodipodi.sourceforge.net/DTD/sodipodi-0.dtd"
   xmlns:inkscape="http://www.inkscape.org/namespaces/inkscape"
   width="254.70851mm"
   height="371.6853mm"
   viewBox="0 0 254.70851 371.6853"
   version="1.1"
   id="svg8"
   inkscape:version="0.92.3 (2405546, 2018-03-11)"
   sodipodi:docname="texto-sup-com.svg">
  <defs
     id="defs2" />
  <sodipodi:namedview
     id="base"
     pagecolor="#ffffff"
     bordercolor="#666666"
     borderopacity="1.0"
     inkscape:pageopacity="0.0"
     inkscape:pageshadow="2"
     inkscape:zoom="0.49497475"
     inkscape:cx="383.70816"
     inkscape:cy="448.9071"
     inkscape:document-units="px"
     inkscape:current-layer="layer1"
     showgrid="false"
     fit-margin-top="0"
     fit-margin-left="0"
     fit-margin-right="0"
     fit-margin-bottom="0"
     inkscape:window-width="1869"
     inkscape:window-height="1025"
     inkscape:window-x="51"
     inkscape:window-y="27"
     inkscape:window-maximized="1" />
  <metadata
     id="metadata5">
    <rdf:RDF>
      <cc:Work
         rdf:about="">
        <dc:format>image/svg+xml</dc:format>
        <dc:type
           rdf:resource="http://purl.org/dc/dcmitype/StillImage" />
        <dc:title></dc:title>
      </cc:Work>
    </rdf:RDF>
  </metadata>
  <g
     inkscape:label="Capa 1"
     inkscape:groupmode="layer"
     id="layer1"
     transform="translate(843.83185,46.82143)">
    <path
       style="fill:#363a35;fill-opacity:0.63608563;stroke-width:0.26458341"
       d="m -837.78463,324.36289 c -2.14536,-0.70267 -3.55831,-1.96421 -4.51105,-4.02767 l -0.77125,-1.67039 -0.0718,-23.12996 c -0.0793,-25.53816 -0.13457,-24.59403 1.59087,-27.17151 0.66861,-0.99881 1.27199,-1.49638 2.68732,-2.21619 1.74869,-0.88932 1.94256,-0.928 4.6302,-0.92407 1.54281,0.003 3.28246,0.14797 3.8659,0.32378 2.38232,0.7179 4.34228,2.68957 5.19734,5.22835 0.28809,0.85539 0.35644,5.49792 0.35644,24.20937 0,21.50219 -0.0335,23.24696 -0.47022,24.49779 -0.75121,2.15148 -1.85154,3.42048 -3.79572,4.37761 -1.52907,0.75276 -2.01659,0.85611 -4.41501,0.93607 -2.14817,0.0716 -3.02068,-0.0164 -4.293,-0.43318 z m 5.06159,-6.12273 c 0.48735,-0.53849 0.50403,-1.30296 0.50403,-23.09654 0,-21.13231 -0.0293,-22.58427 -0.46912,-23.25555 -0.58209,-0.88836 -1.73887,-0.96294 -2.46644,-0.15903 -0.4874,0.53856 -0.50402,1.30559 -0.50402,23.25551 0,21.94996 0.0166,22.71701 0.50402,23.2556 0.64574,0.71354 1.78578,0.71358 2.43153,10e-6 z m 123.21479,6.16319 c -2.27087,-0.73598 -3.59902,-1.86529 -4.61094,-3.92067 l -0.8894,-1.80653 v -23.42128 c 0,-18.12838 0.0756,-23.6702 0.3347,-24.52265 0.62273,-2.04914 1.91479,-3.57142 3.89347,-4.58719 1.75695,-0.90193 1.88378,-0.92598 4.87328,-0.92421 2.62978,0.003 3.25677,0.088 4.37774,0.60325 2.09545,0.96323 2.96256,1.78342 3.90123,3.69014 l 0.87583,1.77905 v 23.69134 23.69135 l -0.87184,1.77094 c -1.06625,2.16588 -2.28598,3.22362 -4.51384,3.91431 -2.10742,0.65338 -5.42567,0.67236 -7.37023,0.0421 z m 4.84355,-6.16319 c 0.48735,-0.53849 0.50403,-1.30296 0.50403,-23.09654 0,-21.13231 -0.0293,-22.58427 -0.46912,-23.25555 -0.64627,-0.9863 -1.8551,-0.9863 -2.50135,5e-5 -0.43983,0.67132 -0.46912,2.1233 -0.46912,23.25559 0,21.79355 0.0167,22.55801 0.50403,23.09649 0.64575,0.71353 1.78579,0.71349 2.43153,-4e-5 z M -821.76797,294.96364 V 265.5739 l 6.28386,0.088 c 6.25772,0.0877 6.2901,0.0911 7.78718,0.82543 1.70288,0.83527 2.94567,2.11679 3.76038,3.87758 0.52843,1.14205 0.56126,1.69465 0.63751,10.72906 0.091,10.77844 0.0275,11.29271 -1.58064,12.80575 -0.55683,0.52394 -1.01261,1.0602 -1.01285,1.19178 -2.4e-4,0.13156 0.45888,0.63237 1.02026,1.11289 0.69833,0.59773 1.1134,1.23249 1.31421,2.00977 0.17978,0.69587 0.34022,5.23668 0.41407,11.71938 0.0853,7.48354 0.22824,11.1452 0.48815,12.50158 l 0.36756,1.91823 h -3.66098 -3.66097 l -0.25849,-0.67987 c -0.51066,-1.34316 -0.78226,-6.75184 -0.78449,-15.62247 -0.002,-8.78542 -0.0172,-9.04527 -0.56144,-9.7372 -0.47168,-0.59962 -0.73046,-0.69839 -1.65365,-0.63101 l -1.09446,0.0799 -0.0686,13.29531 -0.0686,13.29531 h -3.83401 -3.83401 z m 10.77693,-3.41861 c 0.25955,-0.50717 0.32274,-2.76865 0.27089,-9.69599 -0.0638,-8.5312 -0.0963,-9.06627 -0.58309,-9.6038 -0.39702,-0.43845 -0.76183,-0.55116 -1.5875,-0.49047 l -1.07202,0.0788 -0.0694,9.92092 c -0.0382,5.45653 -0.01,10.07674 0.0634,10.26724 0.0901,0.23484 0.53615,0.32027 1.38605,0.26551 1.02729,-0.0662 1.31417,-0.19998 1.59166,-0.74221 z m 11.44807,3.43957 v -29.36874 h 3.7029 3.7029 l 0.0674,26.65678 0.0674,26.65677 3.37343,0.0741 3.37344,0.0741 v 2.63793 2.63792 h -7.14375 -7.14375 z m 16.00917,28.112 c 0.0838,-0.69123 1.15625,-13.28208 2.3832,-27.9797 1.22695,-14.6976 2.30214,-27.34799 2.3893,-28.11198 l 0.15849,-1.38906 h 4.86377 4.86376 l 0.13943,0.8599 c 0.13308,0.82081 5.17622,56.90122 5.17622,57.56032 0,0.23038 -0.94097,0.31727 -3.43455,0.31727 -3.34851,0 -3.43765,-0.0148 -3.55889,-0.5953 -0.0684,-0.32741 -0.35337,-3.58885 -0.63328,-7.24754 -0.27991,-3.65874 -0.59044,-6.78414 -0.69005,-6.94531 -0.10632,-0.17203 -0.99698,-0.2931 -2.15644,-0.2931 -1.80721,0 -1.99394,0.0507 -2.19425,0.59531 -0.12042,0.32745 -0.43582,3.72073 -0.7009,7.54064 l -0.48195,6.9453 h -3.13813 -3.13812 z m 11.15219,-19.52594 c 0.14294,-0.37247 -0.49996,-10.70628 -0.87703,-14.09715 -0.15295,-1.37549 -0.63454,-1.98949 -1.15247,-1.46934 -0.2956,0.29687 -1.46427,14.95242 -1.23913,15.53914 0.23371,0.60903 3.03641,0.63251 3.26863,0.0274 z m 11.20323,-8.58606 v -29.36874 h 4.1968 4.1968 l 2.61622,15.80886 c 2.44271,14.76039 2.65131,15.80886 3.14539,15.80886 0.5225,0 0.53002,-0.19914 0.59739,-15.80886 l 0.0682,-15.80886 h 3.30521 3.30521 v 29.36874 29.36875 l -4.16718,-1.4e-4 -4.16719,-1.3e-4 -2.92182,-16.47018 c -2.69249,-15.1775 -2.96245,-16.47016 -3.43959,-16.47016 -0.50769,0 -0.51908,0.32048 -0.5859,16.47031 l -0.0682,16.4703 h -3.04071 -3.0407 z m 24.60625,0 v -29.4104 l 6.54844,0.0865 c 7.34379,0.097 7.28782,0.0842 9.23274,2.11579 1.53592,1.60437 2.18989,3.06945 2.49933,5.59916 0.16632,1.35977 0.23362,10.1097 0.17847,23.20635 -0.0803,19.05957 -0.13118,21.15089 -0.54512,22.38687 -0.60857,1.81714 -2.43306,3.81611 -4.21389,4.61678 -1.31738,0.59234 -1.74682,0.63323 -7.54841,0.71873 l -6.15156,0.0906 z m 10.36406,22.84452 c 0.46146,-0.41762 0.48367,-1.46159 0.47995,-22.55573 -0.003,-17.3009 -0.0768,-22.26192 -0.33854,-22.77931 -0.28936,-0.57195 -0.5126,-0.66145 -1.64974,-0.66145 h -1.31511 l -0.0683,22.88645 c -0.0376,12.58756 -0.0115,23.03529 0.0578,23.21719 0.18799,0.49289 2.25733,0.41462 2.8339,-0.10715 z m -116.99115,-85.55076 v -29.36875 h 4.8828 4.88281 l 0.13922,0.85989 c 0.0766,0.47295 0.62653,6.21771 1.22213,12.76615 0.59559,6.54844 1.17639,12.08484 1.29066,12.30312 0.11427,0.21829 0.431,0.39688 0.70385,0.39688 0.46044,0 0.59171,-0.94083 1.82729,-13.09688 l 1.33121,-13.09687 4.95689,-0.072 4.95689,-0.072 v 29.37458 29.37461 h -3.04069 -3.04069 l -0.0682,-16.33803 c -0.067,-16.0641 -0.0769,-16.33802 -0.59019,-16.33802 -0.49556,0 -0.6055,0.80499 -2.1682,15.875 -0.90539,8.73125 -1.65275,16.08768 -1.66079,16.34761 -0.0132,0.42574 -0.26993,0.46511 -2.59005,0.39686 l -2.57544,-0.0757 -1.59548,-16.40416 c -1.52246,-15.65332 -1.61954,-16.40418 -2.12092,-16.40418 -0.51783,0 -0.52642,0.23829 -0.59358,16.47032 l -0.0682,16.47031 h -3.0407 -3.04071 z m 29.10417,0 v -29.36875 h 3.83646 3.83645 v 29.36875 29.36875 h -3.83645 -3.83646 z m 9.92408,28.37656 c 0.0774,-0.5457 1.14816,-13.07702 2.37944,-27.8474 1.23127,-14.77036 2.31212,-27.53981 2.40189,-28.37656 l 0.16321,-1.52135 h 4.86377 c 4.83036,0 4.86464,0.004 4.98923,0.59531 0.12272,0.58238 5.19445,57.15921 5.1824,57.81147 -0.005,0.2472 -0.86946,0.33072 -3.42466,0.33072 h -3.41857 l -0.14139,-0.7276 c -0.0778,-0.40018 -0.3432,-3.52558 -0.58986,-6.94531 -0.24665,-3.41974 -0.54673,-6.4856 -0.66683,-6.81303 -0.1998,-0.5447 -0.3863,-0.59531 -2.19367,-0.59531 -1.1989,0 -2.04895,0.11914 -2.16265,0.30313 -0.1715,0.27751 -1.14102,11.91975 -1.15905,13.91823 l -0.008,0.85989 h -3.17814 -3.17812 z m 11.15456,-19.79754 c 0.15301,-0.39877 -0.5573,-11.97109 -0.8811,-14.35474 -0.15151,-1.11538 -0.68663,-1.67926 -1.1433,-1.20473 -0.28253,0.29358 -1.45196,15.00484 -1.23724,15.56438 0.22699,0.59154 3.03439,0.58729 3.26164,-0.005 z m 11.20053,-8.57902 v -29.36875 h 4.89479 c 2.69213,0 4.90495,0.0298 4.91737,0.0661 0.0124,0.0364 0.59116,5.93721 1.28608,13.11296 0.69492,7.17574 1.39113,13.17443 1.54713,13.33043 0.83859,0.83859 0.97631,0.0596 2.25989,-12.78377 0.70357,-7.03985 1.33667,-13.00808 1.40689,-13.26274 0.1157,-0.41961 0.58493,-0.46302 5.00464,-0.46302 h 4.87696 v 29.36875 29.36875 h -3.04068 -3.04067 l -0.0682,-16.20572 c -0.0671,-15.94118 -0.0767,-16.20574 -0.59104,-16.20574 -0.49662,0 -0.60552,0.79626 -2.17106,15.875 -0.90651,8.73125 -1.65349,16.02383 -1.65995,16.20574 -0.009,0.24055 -0.69712,0.33072 -2.5253,0.33072 -1.38244,0 -2.52437,-0.0298 -2.5376,-0.0661 -0.0132,-0.0364 -0.75737,-7.44801 -1.65365,-16.47031 -1.5581,-15.68458 -1.65279,-16.40417 -2.15875,-16.40417 -0.52277,0 -0.52999,0.1991 -0.59731,16.47033 l -0.0681,16.47031 h -3.04071 -3.0407 z m 29.36875,0 v -29.36875 h 3.70416 3.70417 v 29.36875 29.36875 h -3.70417 -3.70416 z m 20.56724,-33.07983 c -3.13632,-0.79049 -5.04866,-2.7412 -5.88407,-6.00213 -0.3578,-1.39661 -0.39978,-4.48985 -0.33008,-24.32003 0.0609,-17.33674 0.15842,-22.95069 0.41144,-23.69399 0.67407,-1.98014 1.96633,-3.46569 3.86086,-4.43837 1.57487,-0.80856 2.06876,-0.92712 4.26131,-1.02302 1.98251,-0.0867 2.84157,0.002 4.28258,0.44207 2.34038,0.71478 3.55156,1.74613 4.63492,3.94675 l 0.87184,1.77096 v 23.68577 23.68577 l -0.60325,1.30836 c -0.95974,2.08151 -1.78896,2.96438 -3.64026,3.87577 -1.52412,0.75032 -2.02982,0.85995 -4.29817,0.93179 -1.41395,0.0448 -3.01915,-0.0316 -3.56712,-0.1697 z m 4.19644,-6.37087 c 0.4874,-0.53857 0.50403,-1.30561 0.50403,-23.25555 0,-21.94995 -0.0166,-22.71698 -0.50403,-23.25556 -0.72756,-0.80395 -1.88434,-0.72936 -2.46644,0.15902 -0.43983,0.67127 -0.46912,2.12324 -0.46912,23.25556 0,21.79357 0.0167,22.55802 0.50403,23.09653 0.27722,0.30632 0.82431,0.55695 1.21576,0.55695 0.39146,0 0.93855,-0.25063 1.21577,-0.55695 z m -115.51577,-23.25555 v -29.36876 h 4.20943 4.20943 l 0.29093,1.78594 c 4.40992,27.07111 4.91402,29.83177 5.44728,29.83177 0.52004,0 0.52825,-0.21781 0.59553,-15.80885 l 0.0682,-15.80886 h 3.30521 3.30521 v 29.36876 29.36875 l -4.16719,-10e-4 -4.16718,-0.001 -2.91469,-16.46924 c -2.70222,-15.26847 -2.95295,-16.46895 -3.43958,-16.46895 -0.51713,0 -0.52591,0.24393 -0.59305,16.47031 l -0.0682,16.47032 h -3.0407 -3.04071 z m 24.60625,0 v -29.36876 h 7.27604 7.27604 v 3.03503 3.03503 l -3.50572,0.0738 -3.50573,0.0738 v 10.18646 10.18646 l 2.71198,0.0754 2.71197,0.0754 v 2.62732 2.62732 l -2.71197,0.0754 -2.71198,0.0754 v 10.18646 10.18646 l 3.77031,0.0734 3.77031,0.0734 v 3.03544 3.03546 h -7.54062 -7.54063 z m 21.31725,28.24427 c -0.1734,-1.33163 -4.1197,-55.82564 -4.11949,-56.88542 l 1.6e-4,-0.72761 h 3.42337 3.42337 l 0.14294,1.12448 c 0.0786,0.61847 0.51385,7.2562 0.96717,14.75053 0.45333,7.49432 0.92408,13.73114 1.04611,13.85961 0.43141,0.45413 1.0004,-0.0772 1.15116,-1.07505 0.084,-0.55583 0.6351,-6.84467 1.2247,-13.97519 0.5896,-7.13052 1.13346,-13.35154 1.20858,-13.82448 l 0.13658,-0.8599 h 2.73745 c 2.62241,0 2.74313,0.025 2.8726,0.59532 0.0743,0.32742 0.70226,6.78656 1.39541,14.35364 0.83081,9.07006 1.37358,13.88337 1.59281,14.12525 0.9368,1.03359 1.0279,0.42337 1.91643,-12.83769 0.47646,-7.11107 0.93599,-13.67336 1.02118,-14.58287 l 0.15488,-1.65365 h 3.15468 3.15467 l -0.14746,1.12448 c -0.0811,0.61847 -1.04416,13.44745 -2.14012,28.50886 -1.09596,15.06141 -2.05433,27.77133 -2.1297,28.24427 l -0.13704,0.8599 h -3.53663 -3.53663 l -0.15306,-0.99219 c -0.0842,-0.5457 -0.75111,-6.15563 -1.48206,-12.46651 -0.73096,-6.31088 -1.39802,-11.58599 -1.48237,-11.72246 -0.0843,-0.13648 -0.34699,-0.21085 -0.58364,-0.16528 -0.36773,0.0708 -0.61161,1.85179 -1.6777,12.25163 -0.68609,6.69282 -1.25526,12.37712 -1.26484,12.63179 -0.0158,0.42022 -0.39496,0.46302 -4.10226,0.46302 h -4.08482 z m 42.9765,-9.28712 v -10.4116 l -3.17353,-18.49413 c -1.74544,-10.17177 -3.17419,-18.70585 -3.175,-18.96462 -10e-4,-0.43173 0.29797,-0.46442 3.63302,-0.39688 l 3.6345,0.0736 1.06186,9.38953 c 0.92837,8.2091 1.11971,9.40061 1.52197,9.47769 0.28426,0.0545 0.55542,-0.14656 0.70948,-0.52599 0.20344,-0.50103 2.15187,-17.01265 2.14091,-18.1428 -0.002,-0.24898 0.91231,-0.33073 3.70096,-0.33073 2.03729,0 3.70369,0.0893 3.70311,0.19844 -5.3e-4,0.10914 -1.42933,8.6427 -3.175,18.96346 l -3.17394,18.76501 v 10.4053 10.4053 h -3.70417 -3.70417 z m 37.83542,-18.97475 v -29.38634 l 6.15156,0.0837 c 5.82133,0.0792 6.22656,0.11762 7.54842,0.71498 1.82647,0.8254 3.62736,2.81911 4.15678,4.60186 0.32378,1.09027 0.39949,3.14042 0.39949,10.81686 0,10.43824 -0.0823,11.05636 -1.61759,12.14959 -0.94691,0.67426 -0.97437,1.36715 -0.0774,1.95483 1.52602,0.99989 1.6184,1.67462 1.79421,13.10499 0.14345,9.32632 0.3742,13.39042 0.84437,14.8718 0.13974,0.44027 -0.11375,0.47404 -3.55911,0.47404 h -3.70955 l -0.28573,-0.99219 c -0.48157,-1.67224 -0.78588,-8.00498 -0.79182,-16.47759 -0.007,-9.39524 0.007,-9.33541 -2.08064,-9.20049 l -1.23231,0.0796 -0.0686,13.29531 -0.0686,13.29532 h -3.70172 -3.70172 z m 10.43604,-3.21628 c 0.35339,-0.50453 0.41133,-1.86653 0.40798,-9.59114 -0.005,-10.48357 0.0258,-10.32603 -1.98829,-10.32603 h -1.3151 l -0.0694,9.92094 c -0.0382,5.45651 -0.0121,10.07018 0.0579,10.2526 0.0758,0.19746 0.60634,0.33167 1.3112,0.33167 0.9235,0 1.27452,-0.12935 1.5958,-0.58804 z m 11.52438,3.23388 v -29.36876 h 3.70417 3.70416 v 10.32706 c 0,9.13238 0.048,10.34546 0.41466,10.48617 0.22807,0.0875 0.54296,0.0308 0.69976,-0.12598 0.24005,-0.24005 2.21735,-9.78928 3.8042,-18.37214 l 0.42802,-2.31511 h 3.27981 c 2.45131,0 3.27798,0.0836 3.27257,0.33073 -0.004,0.1819 -1.30197,6.56265 -2.88444,14.17944 l -2.87721,13.84869 2.88444,15.07235 c 1.58644,8.28979 2.88444,15.12854 2.88444,15.19723 0,0.0687 -1.51141,0.0916 -3.35868,0.0508 l -3.35869,-0.074 -1.87045,-9.31695 c -1.02874,-5.12432 -2.00964,-9.45615 -2.17978,-9.62628 -0.17013,-0.17013 -0.49592,-0.23773 -0.72399,-0.15021 -0.36587,0.1404 -0.41466,1.28073 -0.41466,9.69242 v 9.53331 h -3.70416 -3.70417 z"
       id="path830-3-6"
       inkscape:connector-curvature="0" />
    <path
       style="fill:#fffffc;fill-opacity:1;stroke:none;stroke-width:0.26458332px;stroke-linecap:butt;stroke-linejoin:miter;stroke-opacity:1"
       d="m -843.83185,-45.690954 0.25106,148.256304 c -2.15676,24.65204 48.79092,37.34261 55.05752,0.26727 l 0.0783,-148.539785 -24.21083,0.04864 -0.11069,145.786015 c -0.26055,6.30704 -6.06019,6.74031 -6.76002,0.0324 l -0.26725,-145.661883 z"
       id="path871"
       inkscape:connector-curvature="0"
       sodipodi:nodetypes="ccccccccc" />
    <path
       style="fill:#fffffc;fill-opacity:1;stroke:none;stroke-width:0.26458332px;stroke-linecap:butt;stroke-linejoin:miter;stroke-opacity:1"
       d="m -782.65525,-25.881412 -0.15458,34.9971899 c 2.87283,18.5198961 12.41846,29.1485891 22.79403,41.5382381 4.30691,7.700272 8.50028,15.088307 8.69344,24.568452 l -0.0236,22.347837 c -0.75409,11.955395 -10.01061,7.452635 -9.59116,0.212608 l -0.0344,-42.234775 -21.60474,-0.09855 0.077,47.713762 c 2.021,31.27986 54.12956,28.28596 55.10753,-0.0179 l -0.47246,-33.923354 c -0.3983,-11.98444 -7.91484,-22.985799 -16.56008,-33.97061 -5.47002,-7.563496 -11.05707,-13.586158 -14.17214,-28.092408 l -0.002,-30.325873 c 2.73758,-5.47232 5.00025,-4.612349 6.98305,-0.02096 l 0.34025,45.682547 21.40289,0.09449 0.37798,-48.758927 c -4.60154,-27.034415 -49.09283,-28.130148 -53.16102,0.28823 z"
       id="path873"
       inkscape:connector-curvature="0"
       sodipodi:nodetypes="ccccccccccccccccccc" />
    <path
       style="fill:#fffffc;fill-opacity:1;stroke:none;stroke-width:0.26458332px;stroke-linecap:butt;stroke-linejoin:miter;stroke-opacity:1"
       d="m -709.88689,-45.54089 -14.14848,169.34005 20.43337,-0.0667 3.37706,-42.48578 9.85107,-0.02377 3.55741,42.51368 22.95622,-0.0605 -15.22129,-169.170033 z m 14.70401,65.464738 3.39566,43.251105 -7.20061,-0.03204 z"
       id="path875"
       inkscape:connector-curvature="0" />
    <path
       style="fill:#fffffc;fill-opacity:1;stroke:none;stroke-width:0.26458332px;stroke-linecap:butt;stroke-linejoin:miter;stroke-opacity:1"
       d="m -660.86866,-35.479359 0.0334,4.443357 c 4.06376,0.628199 8.61243,-2.064588 13.02939,-5.14494 l 0.20044,159.827172 5.87993,-0.0334 0.20046,-169.248429 h -4.81085 c -3.56155,4.442137 -6.30174,8.660619 -14.53278,10.15624 z"
       id="path879"
       inkscape:connector-curvature="0"
       sodipodi:nodetypes="cccccccc" />
    <path
       style="fill:#fffffc;fill-opacity:1;stroke:none;stroke-width:0.26458332px;stroke-linecap:butt;stroke-linejoin:miter;stroke-opacity:1"
       d="m -590.18639,-45.481864 -35.58881,-0.03543 0.12993,84.265066 h 5.94131 l -0.0354,-4.535713 c -0.0405,-5.188068 5.74718,-12.197839 9.33128,-12.142486 l 6.11849,0.09449 c 3.03101,0.04681 7.95509,4.533021 8.93542,12.601117 l -0.0726,72.27983 c -1.29329,17.04744 -22.08675,17.58675 -24.35989,0.2744 l 0.14174,-52.365914 -6.23349,-0.0167 0.0637,53.475034 c 2.47402,23.71777 34.63852,22.32366 36.69137,-0.81131 l -0.0472,-73.57745 c -0.0647,-7.6686 -5.60767,-16.876553 -14.12686,-17.292411 l -3.91315,0.0029 c -3.903,0.0029 -8.91909,2.53481 -12.52881,9.493785 l 0.0472,-66.334819 29.32859,0.02362 z"
       id="path881"
       inkscape:connector-curvature="0"
       sodipodi:nodetypes="ccccssscccccccccscccc" />
    <path
       style="fill:#363a35;fill-opacity:1;stroke-width:0.26458338"
       d="m -837.78463,324.36289 c -2.14536,-0.70267 -3.55831,-1.96421 -4.51105,-4.02767 l -0.77125,-1.67039 -0.0718,-23.12996 c -0.0793,-25.53816 -0.13457,-24.59403 1.59087,-27.17151 0.66861,-0.99881 1.27199,-1.49638 2.68732,-2.21619 1.74869,-0.88932 1.94256,-0.928 4.6302,-0.92407 1.54281,0.003 3.28246,0.14797 3.8659,0.32378 2.38232,0.7179 4.34228,2.68957 5.19734,5.22835 0.28809,0.85539 0.35644,5.49792 0.35644,24.20938 0,21.50219 -0.0335,23.24695 -0.47022,24.49778 -0.75121,2.15149 -1.85154,3.42048 -3.79572,4.37761 -1.52907,0.75276 -2.01659,0.85611 -4.41501,0.93607 -2.14817,0.0716 -3.02068,-0.0164 -4.293,-0.43318 z m 5.06159,-6.12272 c 0.48735,-0.5385 0.50403,-1.30297 0.50403,-23.09654 0,-21.13232 -0.0293,-22.58428 -0.46912,-23.25556 -0.58209,-0.88836 -1.73887,-0.96294 -2.46644,-0.15903 -0.4874,0.53856 -0.50402,1.30559 -0.50402,23.25552 0,21.94995 0.0166,22.717 0.50402,23.25559 0.64574,0.71354 1.78578,0.71358 2.43153,2e-5 z m 123.21479,6.16318 c -2.27087,-0.73597 -3.59902,-1.86529 -4.61094,-3.92067 l -0.8894,-1.80653 v -23.42128 c 0,-18.12838 0.0756,-23.6702 0.3347,-24.52265 0.62273,-2.04914 1.91479,-3.57142 3.89347,-4.58719 1.75695,-0.90193 1.88378,-0.92598 4.87328,-0.92421 2.62978,0.003 3.25677,0.088 4.37774,0.60325 2.09545,0.96323 2.96256,1.78342 3.90123,3.69014 l 0.87583,1.77905 v 23.69135 23.69135 l -0.87184,1.77093 c -1.06625,2.16589 -2.28598,3.22362 -4.51384,3.91431 -2.10742,0.65338 -5.42567,0.67236 -7.37023,0.0421 z m 4.84355,-6.16318 c 0.48735,-0.5385 0.50403,-1.30297 0.50403,-23.09654 0,-21.13232 -0.0293,-22.58428 -0.46912,-23.25556 -0.64627,-0.9863 -1.8551,-0.9863 -2.50135,5e-5 -0.43983,0.67132 -0.46912,2.1233 -0.46912,23.25559 0,21.79355 0.0167,22.55801 0.50403,23.09649 0.64575,0.71353 1.78579,0.71349 2.43153,-3e-5 z M -821.76797,294.96364 V 265.5739 l 6.28386,0.088 c 6.25772,0.0877 6.2901,0.0911 7.78718,0.82543 1.70288,0.83527 2.94567,2.11679 3.76038,3.87758 0.52843,1.14205 0.56126,1.69465 0.63751,10.72906 0.091,10.77844 0.0275,11.29271 -1.58064,12.80575 -0.55683,0.52394 -1.01261,1.06021 -1.01285,1.19179 -2.4e-4,0.13155 0.45888,0.63236 1.02026,1.11289 0.69833,0.59772 1.1134,1.23249 1.31421,2.00976 0.17978,0.69588 0.34022,5.23668 0.41407,11.71939 0.0853,7.48353 0.22824,11.14519 0.48815,12.50157 l 0.36756,1.91823 h -3.66098 -3.66097 l -0.25849,-0.67987 c -0.51066,-1.34316 -0.78226,-6.75184 -0.78449,-15.62247 -0.002,-8.78542 -0.0172,-9.04527 -0.56144,-9.73719 -0.47168,-0.59962 -0.73046,-0.6984 -1.65365,-0.63101 l -1.09446,0.0799 -0.0686,13.29531 -0.0686,13.29531 h -3.83401 -3.83401 z m 10.77693,-3.4186 c 0.25955,-0.50718 0.32274,-2.76866 0.27089,-9.696 -0.0638,-8.5312 -0.0963,-9.06627 -0.58309,-9.6038 -0.39702,-0.43845 -0.76183,-0.55116 -1.5875,-0.49047 l -1.07202,0.0788 -0.0694,9.92092 c -0.0382,5.45653 -0.01,10.07675 0.0634,10.26724 0.0901,0.23484 0.53615,0.32027 1.38605,0.26551 1.02729,-0.0662 1.31417,-0.19998 1.59166,-0.74221 z m 11.44807,3.43957 v -29.36875 h 3.7029 3.7029 l 0.0674,26.65678 0.0674,26.65677 3.37343,0.0741 3.37344,0.0741 v 2.63793 2.63792 h -7.14375 -7.14375 z m 16.00917,28.11199 c 0.0838,-0.69123 1.15625,-13.28208 2.3832,-27.97969 1.22695,-14.69761 2.30214,-27.348 2.3893,-28.11199 l 0.15849,-1.38906 h 4.86377 4.86376 l 0.13943,0.8599 c 0.13308,0.82081 5.17622,56.90122 5.17622,57.56032 0,0.23038 -0.94097,0.31728 -3.43455,0.31728 -3.34851,0 -3.43765,-0.0148 -3.55889,-0.59531 -0.0684,-0.32741 -0.35337,-3.58884 -0.63328,-7.24754 -0.27991,-3.65874 -0.59044,-6.78414 -0.69005,-6.94531 -0.10632,-0.17203 -0.99698,-0.29309 -2.15644,-0.29309 -1.80721,0 -1.99394,0.0507 -2.19425,0.59531 -0.12042,0.32744 -0.43582,3.72072 -0.7009,7.54063 l -0.48195,6.94531 h -3.13813 -3.13812 z m 11.15219,-19.52593 c 0.14294,-0.37248 -0.49996,-10.70629 -0.87703,-14.09716 -0.15295,-1.37549 -0.63454,-1.98948 -1.15247,-1.46934 -0.2956,0.29688 -1.46427,14.95242 -1.23913,15.53914 0.23371,0.60903 3.03641,0.63251 3.26863,0.0274 z m 11.20323,-8.58606 v -29.36875 h 4.1968 4.1968 l 2.61622,15.80886 c 2.44271,14.76039 2.65131,15.80886 3.14539,15.80886 0.5225,0 0.53002,-0.19914 0.59739,-15.80886 l 0.0682,-15.80886 h 3.30521 3.30521 v 29.36875 29.36875 l -4.16718,-1.5e-4 -4.16719,-1.3e-4 -2.92182,-16.47018 c -2.69249,-15.17749 -2.96245,-16.47016 -3.43959,-16.47016 -0.50769,0 -0.51908,0.32049 -0.5859,16.47031 l -0.0682,16.47031 h -3.04071 -3.0407 z m 24.60625,0 V 265.5742 l 6.54844,0.0865 c 7.34379,0.097 7.28782,0.0842 9.23274,2.11579 1.53592,1.60437 2.18989,3.06945 2.49933,5.59916 0.16632,1.35977 0.23362,10.1097 0.17847,23.20635 -0.0803,19.05957 -0.13118,21.15089 -0.54512,22.38687 -0.60857,1.81715 -2.43306,3.81611 -4.21389,4.61678 -1.31738,0.59234 -1.74682,0.63323 -7.54841,0.71873 l -6.15156,0.0906 z m 10.36406,22.84451 c 0.46146,-0.41762 0.48367,-1.46159 0.47995,-22.55573 -0.003,-17.3009 -0.0768,-22.26192 -0.33854,-22.77931 -0.28936,-0.57195 -0.5126,-0.66145 -1.64974,-0.66145 h -1.31511 l -0.0683,22.88645 c -0.0376,12.58756 -0.0115,23.03529 0.0578,23.21719 0.18799,0.49289 2.25733,0.41462 2.8339,-0.10715 z m -116.99115,-85.55076 v -29.36875 h 4.8828 4.88281 l 0.13922,0.85989 c 0.0766,0.47295 0.62653,6.21771 1.22213,12.76615 0.59559,6.54844 1.17639,12.08484 1.29066,12.30312 0.11427,0.21829 0.431,0.39688 0.70385,0.39688 0.46044,0 0.59171,-0.94083 1.82729,-13.09688 l 1.33121,-13.09687 4.95689,-0.072 4.95689,-0.072 v 29.37458 29.37461 h -3.04069 -3.04069 l -0.0682,-16.33803 c -0.067,-16.0641 -0.0769,-16.33802 -0.59019,-16.33802 -0.49556,0 -0.6055,0.80499 -2.1682,15.875 -0.90539,8.73125 -1.65275,16.08768 -1.66079,16.34761 -0.0132,0.42574 -0.26993,0.46511 -2.59005,0.39686 l -2.57544,-0.0757 -1.59548,-16.40416 c -1.52246,-15.65332 -1.61954,-16.40418 -2.12092,-16.40418 -0.51783,0 -0.52642,0.23829 -0.59358,16.47032 l -0.0682,16.47031 h -3.0407 -3.04071 z m 29.10417,0 v -29.36875 h 3.83646 3.83645 v 29.36875 29.36875 h -3.83645 -3.83646 z m 9.92408,28.37656 c 0.0774,-0.5457 1.14816,-13.07702 2.37944,-27.8474 1.23127,-14.77036 2.31212,-27.53981 2.40189,-28.37656 l 0.16321,-1.52135 h 4.86377 c 4.83036,0 4.86464,0.004 4.98923,0.59531 0.12272,0.58238 5.19445,57.15921 5.1824,57.81147 -0.005,0.2472 -0.86946,0.33072 -3.42466,0.33072 h -3.41857 l -0.14139,-0.7276 c -0.0778,-0.40018 -0.3432,-3.52558 -0.58986,-6.94531 -0.24665,-3.41974 -0.54673,-6.4856 -0.66683,-6.81303 -0.1998,-0.5447 -0.3863,-0.59531 -2.19367,-0.59531 -1.1989,0 -2.04895,0.11914 -2.16265,0.30313 -0.1715,0.27751 -1.14102,11.91975 -1.15905,13.91823 l -0.008,0.85989 h -3.17813 -3.17812 z m 11.15456,-19.79754 c 0.15301,-0.39877 -0.5573,-11.97109 -0.8811,-14.35474 -0.15151,-1.11538 -0.68663,-1.67926 -1.1433,-1.20473 -0.28253,0.29358 -1.45196,15.00484 -1.23724,15.56438 0.22699,0.59154 3.03439,0.58729 3.26164,-0.005 z m 11.20053,-8.57902 v -29.36875 h 4.89479 c 2.69213,0 4.90495,0.0298 4.91737,0.0661 0.0124,0.0364 0.59116,5.93721 1.28608,13.11296 0.69492,7.17574 1.39113,13.17443 1.54713,13.33043 0.83859,0.83859 0.97631,0.0596 2.25989,-12.78377 0.70357,-7.03985 1.33667,-13.00808 1.40689,-13.26274 0.1157,-0.41961 0.58493,-0.46302 5.00464,-0.46302 h 4.87696 v 29.36875 29.36875 h -3.04068 -3.04067 l -0.0682,-16.20572 c -0.0671,-15.94118 -0.0767,-16.20574 -0.59104,-16.20574 -0.49662,0 -0.60552,0.79626 -2.17106,15.875 -0.90651,8.73125 -1.65349,16.02383 -1.65995,16.20574 -0.009,0.24055 -0.69712,0.33072 -2.5253,0.33072 -1.38244,0 -2.52437,-0.0298 -2.5376,-0.0661 -0.0132,-0.0364 -0.75737,-7.44801 -1.65365,-16.47031 -1.5581,-15.68458 -1.65279,-16.40417 -2.15875,-16.40417 -0.52277,0 -0.52999,0.1991 -0.59731,16.47033 l -0.0681,16.47031 h -3.04071 -3.0407 z m 29.36875,0 v -29.36875 h 3.70416 3.70417 v 29.36875 29.36875 h -3.70417 -3.70416 z m 20.56724,-33.07983 c -3.13632,-0.79049 -5.04866,-2.7412 -5.88407,-6.00213 -0.3578,-1.39661 -0.39978,-4.48985 -0.33008,-24.32003 0.0609,-17.33674 0.15842,-22.95069 0.41144,-23.69399 0.67407,-1.98014 1.96633,-3.46569 3.86086,-4.43837 1.57487,-0.80856 2.06876,-0.92712 4.26131,-1.02302 1.98251,-0.0867 2.84157,0.002 4.28258,0.44207 2.34038,0.71478 3.55156,1.74613 4.63492,3.94675 l 0.87184,1.77096 v 23.68577 23.68577 l -0.60325,1.30836 c -0.95974,2.08151 -1.78896,2.96438 -3.64026,3.87577 -1.52412,0.75032 -2.02982,0.85995 -4.29817,0.93179 -1.41395,0.0448 -3.01915,-0.0316 -3.56712,-0.1697 z m 4.19644,-6.37087 c 0.4874,-0.53857 0.50403,-1.30561 0.50403,-23.25555 0,-21.94995 -0.0166,-22.71698 -0.50403,-23.25556 -0.72756,-0.80395 -1.88434,-0.72936 -2.46644,0.15902 -0.43983,0.67127 -0.46912,2.12324 -0.46912,23.25556 0,21.79357 0.0167,22.55802 0.50403,23.09653 0.27722,0.30632 0.82431,0.55695 1.21576,0.55695 0.39146,0 0.93855,-0.25063 1.21577,-0.55695 z m -115.51577,-23.25555 v -29.36876 h 4.20943 4.20943 l 0.29093,1.78594 c 4.40992,27.07111 4.91402,29.83177 5.44728,29.83177 0.52004,0 0.52825,-0.21781 0.59553,-15.80885 l 0.0682,-15.80886 h 3.30521 3.30521 v 29.36876 29.36875 l -4.16719,-10e-4 -4.16718,-0.001 -2.91469,-16.46924 c -2.70222,-15.26858 -2.95295,-16.46907 -3.43958,-16.46907 -0.51713,0 -0.52591,0.24393 -0.59305,16.47031 l -0.0682,16.47032 h -3.0407 -3.04071 z m 24.60625,0 v -29.36876 h 7.27604 7.27604 v 3.03503 3.03503 l -3.50572,0.0738 -3.50573,0.0738 v 10.18646 10.18646 l 2.71198,0.0754 2.71197,0.0754 v 2.62732 2.62732 l -2.71197,0.0754 -2.71198,0.0754 v 10.18646 10.18646 l 3.77031,0.0734 3.77031,0.0734 v 3.03544 3.03546 h -7.54062 -7.54063 z m 21.31725,28.24427 c -0.1734,-1.33163 -4.1197,-55.82564 -4.11949,-56.88542 l 1.6e-4,-0.72761 h 3.42337 3.42337 l 0.14294,1.12448 c 0.0786,0.61847 0.51385,7.2562 0.96717,14.75053 0.45333,7.49432 0.92408,13.73114 1.04611,13.85961 0.43141,0.45413 1.0004,-0.0772 1.15116,-1.07505 0.084,-0.55583 0.6351,-6.84467 1.2247,-13.97519 0.5896,-7.13052 1.13346,-13.35154 1.20858,-13.82448 l 0.13658,-0.8599 h 2.73745 c 2.62241,0 2.74313,0.025 2.8726,0.59532 0.0743,0.32742 0.70226,6.78656 1.39541,14.35364 0.83081,9.07006 1.37358,13.88337 1.59281,14.12525 0.9368,1.03359 1.0279,0.42337 1.91643,-12.83769 0.47646,-7.11107 0.93599,-13.67336 1.02118,-14.58287 l 0.15488,-1.65365 h 3.15468 3.15467 l -0.14746,1.12448 c -0.0811,0.61847 -1.04416,13.44745 -2.14012,28.50886 -1.09596,15.06141 -2.05433,27.77133 -2.1297,28.24427 l -0.13704,0.8599 h -3.53663 -3.53663 l -0.15306,-0.99219 c -0.0842,-0.5457 -0.75111,-6.15563 -1.48206,-12.46651 -0.73096,-6.31088 -1.39802,-11.58599 -1.48237,-11.72246 -0.0843,-0.13648 -0.34699,-0.21085 -0.58364,-0.16528 -0.36773,0.0708 -0.61161,1.85179 -1.6777,12.25163 -0.68609,6.69282 -1.25526,12.37712 -1.26484,12.63179 -0.0158,0.42022 -0.39496,0.46302 -4.10226,0.46302 h -4.08482 z m 42.9765,-9.28712 v -10.4116 l -3.17353,-18.49413 c -1.74544,-10.17177 -3.17419,-18.70585 -3.175,-18.96462 -10e-4,-0.43173 0.29797,-0.46442 3.63302,-0.39688 l 3.6345,0.0736 1.06186,9.38953 c 0.92837,8.2091 1.11971,9.40061 1.52197,9.47769 0.28426,0.0545 0.55542,-0.14656 0.70948,-0.52599 0.20344,-0.50103 2.15187,-17.01265 2.14091,-18.1428 -0.002,-0.24898 0.91231,-0.33073 3.70096,-0.33073 2.03729,0 3.70369,0.0893 3.70311,0.19844 -5.3e-4,0.10914 -1.42933,8.6427 -3.175,18.96346 l -3.17394,18.76501 v 10.4053 10.4053 h -3.70417 -3.70417 z m 37.83542,-18.97475 v -29.38634 l 6.15156,0.0837 c 5.82133,0.0792 6.22656,0.11762 7.54842,0.71498 1.82647,0.8254 3.62736,2.81911 4.15678,4.60186 0.32378,1.09027 0.39949,3.14042 0.39949,10.81686 0,10.43824 -0.0823,11.05636 -1.61759,12.14959 -0.94691,0.67426 -0.97437,1.36715 -0.0774,1.95483 1.52602,0.99989 1.6184,1.67462 1.79421,13.10499 0.14345,9.32632 0.3742,13.39042 0.84437,14.8718 0.13974,0.44027 -0.11375,0.47404 -3.55911,0.47404 h -3.70955 l -0.28573,-0.99219 c -0.48157,-1.67224 -0.78588,-8.00498 -0.79182,-16.47759 -0.007,-9.39524 0.007,-9.33541 -2.08064,-9.20049 l -1.23231,0.0796 -0.0686,13.29531 -0.0686,13.29532 h -3.70172 -3.70172 z m 10.43604,-3.21628 c 0.35339,-0.50453 0.41133,-1.86653 0.40798,-9.59114 -0.005,-10.48357 0.0258,-10.32603 -1.98829,-10.32603 h -1.3151 l -0.0694,9.92094 c -0.0382,5.45651 -0.0121,10.07018 0.0579,10.2526 0.0758,0.19746 0.60634,0.33167 1.3112,0.33167 0.9235,0 1.27452,-0.12935 1.5958,-0.58804 z m 11.52438,3.23388 v -29.36876 h 3.70417 3.70416 v 10.32706 c 0,9.13238 0.048,10.34546 0.41466,10.48617 0.22807,0.0875 0.54296,0.0308 0.69976,-0.12598 0.24005,-0.24005 2.21735,-9.78928 3.8042,-18.37214 l 0.42802,-2.31511 h 3.27981 c 2.45131,0 3.27798,0.0836 3.27257,0.33073 -0.004,0.1819 -1.30197,6.56265 -2.88444,14.17944 l -2.87721,13.84869 2.88444,15.07235 c 1.58644,8.28979 2.88444,15.12854 2.88444,15.19723 0,0.0687 -1.51141,0.0916 -3.35868,0.0508 l -3.35869,-0.074 -1.87045,-9.31695 c -1.02874,-5.12432 -2.00964,-9.45615 -2.17978,-9.62628 -0.17013,-0.17013 -0.49592,-0.23773 -0.72399,-0.15021 -0.36587,0.1404 -0.41466,1.28073 -0.41466,9.69242 v 9.53331 h -3.70416 -3.70417 z"
       id="path830-3"
       inkscape:connector-curvature="0" />
  </g>
</svg>
