<?xml version="1.0" standalone="no"?>
<!DOCTYPE svg PUBLIC "-//W3C//DTD SVG 20010904//EN"
 "http://www.w3.org/TR/2001/REC-SVG-20010904/DTD/svg10.dtd">
<svg version="1.0" xmlns="http://www.w3.org/2000/svg"
 width="300.000000pt" height="300.000000pt" viewBox="0 0 300.000000 300.000000"
 preserveAspectRatio="xMidYMid meet">
<metadata>
Created by potrace 1.11, written by Peter Selinger 2001-2013
</metadata>
<g transform="translate(0.000000,300.000000) scale(0.100000,-0.100000)"
fill="#000000" stroke="none">
<path d="M2235 2821 c-69 -17 -134 -71 -171 -141 -26 -49 -26 -172 0 -220 24
-45 435 -460 456 -460 9 0 113 98 232 218 200 201 217 221 232 271 20 68 20
94 0 160 -30 101 -140 181 -249 181 -55 0 -126 -31 -171 -75 l-44 -42 -45 43
c-64 62 -153 86 -240 65z"/>
<path d="M317 1972 c-16 -17 -17 -86 -17 -924 0 -864 1 -906 18 -921 16 -15
46 -17 209 -17 171 0 192 2 206 18 15 16 17 53 17 316 l0 297 41 -3 41 -3 184
-300 c101 -165 192 -306 201 -312 12 -10 76 -13 235 -13 205 0 219 1 238 20
11 11 20 28 20 37 0 10 -92 153 -204 318 l-203 300 71 46 c92 58 167 144 217
244 52 106 72 190 72 300 0 274 -153 492 -408 582 l-80 28 -421 3 c-400 3
-421 2 -437 -16z m786 -435 c93 -40 142 -158 106 -254 -14 -38 -67 -92 -105
-109 -25 -11 -221 -19 -341 -14 -10 0 -13 46 -13 193 0 107 3 197 8 201 4 4
75 6 157 4 110 -3 160 -9 188 -21z"/>
<path d="M2278 1580 c-304 -55 -529 -263 -603 -555 -24 -91 -24 -255 -1 -350
22 -93 83 -216 143 -290 201 -247 556 -341 844 -223 120 49 229 128 229 165 0
27 -200 233 -225 233 -11 0 -51 -16 -90 -35 -90 -45 -166 -59 -242 -46 -31 6
-59 11 -62 11 -3 0 160 166 362 368 258 259 367 374 367 389 0 30 -72 117
-146 176 -70 57 -195 121 -279 142 -73 19 -233 27 -297 15z m214 -368 c14 -6
-29 -55 -217 -246 -129 -132 -239 -236 -243 -232 -4 4 -7 56 -7 114 0 101 2
110 32 167 47 90 132 164 218 191 43 13 188 17 217 6z"/>
</g>
</svg>
